<?xml version="1.0" encoding="UTF-8" standalone="no"?>
<!-- Created with Inkscape (http://www.inkscape.org/) -->

<svg
   width="83.5mm"
   height="108.9mm"
   viewBox="0 0 83.5 108.9"
   version="1.1"
   id="svg1"
   inkscape:version="1.4.3 (0d15f75, 2025-12-25)"
   sodipodi:docname="Clueageddon Twist Card - Hot Tub Party.svg"
   xml:space="preserve"
   inkscape:export-filename="Clueageddon Twist Card - Hot Tub Party.png"
   inkscape:export-xdpi="600"
   inkscape:export-ydpi="600"
   xmlns:inkscape="http://www.inkscape.org/namespaces/inkscape"
   xmlns:sodipodi="http://sodipodi.sourceforge.net/DTD/sodipodi-0.dtd"
   xmlns="http://www.w3.org/2000/svg"
   xmlns:svg="http://www.w3.org/2000/svg"><sodipodi:namedview
     id="namedview1"
     pagecolor="#ffffff"
     bordercolor="#000000"
     borderopacity="0.25"
     inkscape:showpageshadow="2"
     inkscape:pageopacity="0.0"
     inkscape:pagecheckerboard="0"
     inkscape:deskcolor="#d1d1d1"
     inkscape:document-units="mm"
     inkscape:zoom="2.32"
     inkscape:cx="208.62069"
     inkscape:cy="214.43966"
     inkscape:window-width="1920"
     inkscape:window-height="1111"
     inkscape:window-x="-9"
     inkscape:window-y="-9"
     inkscape:window-maximized="1"
     inkscape:current-layer="layer1" /><defs
     id="defs1"><rect
       x="-82.758621"
       y="88.793103"
       width="71.551724"
       height="61.206897"
       id="rect2" /><clipPath
       clipPathUnits="userSpaceOnUse"
       id="clipPath16"><path
         d="M 0,288 H 288 V 0 H 0 Z"
         id="path14" /></clipPath></defs><g
     inkscape:label="Layer 1"
     inkscape:groupmode="layer"
     id="layer1"><rect
       style="fill:#000000;stroke-width:0.263869"
       id="rect1"
       width="83.5"
       height="108.9"
       x="0"
       y="0" /><circle
       style="fill:#ffffff;stroke-width:0.264583"
       id="path2"
       cx="15.5"
       cy="15.5"
       r="3" /><circle
       style="fill:#ffffff;stroke-width:0.264583"
       id="path2-8"
       cx="57.375015"
       cy="15.5"
       r="3" /><rect
       style="fill:#ffffff;stroke-width:0.332825"
       id="rect3"
       width="42.14246"
       height="6"
       x="15.558662"
       y="12.5" /><text
       xml:space="preserve"
       style="font-style:normal;font-variant:normal;font-weight:bold;font-stretch:normal;font-size:4.93889px;font-family:sans-serif;-inkscape-font-specification:'sans-serif Bold';writing-mode:lr-tb;direction:ltr;fill:#000000;stroke-width:0.264583"
       x="15.585592"
       y="17.442217"
       id="text3"><tspan
         sodipodi:role="line"
         id="tspan3"
         style="font-style:normal;font-variant:normal;font-weight:bold;font-stretch:normal;font-size:4.93889px;font-family:sans-serif;-inkscape-font-specification:'sans-serif Bold';stroke-width:0.264583"
         x="15.585592"
         y="17.442217">CLUEAGEDDON</tspan></text><circle
       style="fill:#ffffff;stroke-width:0.264583"
       id="path2-1"
       cx="-68.381859"
       cy="-93.300117"
       r="3"
       transform="scale(-1)" /><circle
       style="fill:#ffffff;stroke-width:0.264583"
       id="path2-8-7"
       cx="-27.036011"
       cy="-93.300117"
       r="3"
       transform="scale(-1)" /><rect
       style="fill:#ffffff;stroke-width:0.331019"
       id="rect3-1"
       width="41.686283"
       height="6"
       x="-68.323196"
       y="-96.300117"
       transform="scale(-1)" /><text
       xml:space="preserve"
       style="font-style:normal;font-variant:normal;font-weight:bold;font-stretch:normal;font-size:4.93889px;font-family:sans-serif;-inkscape-font-specification:'sans-serif Bold';writing-mode:lr-tb;direction:ltr;fill:#000000;stroke-width:0.264583"
       x="-68.655823"
       y="-91.577011"
       id="text3-1"
       transform="scale(-1)"><tspan
         sodipodi:role="line"
         id="tspan3-5"
         style="font-style:normal;font-variant:normal;font-weight:bold;font-stretch:normal;font-size:4.93889px;font-family:sans-serif;-inkscape-font-specification:'sans-serif Bold';stroke-width:0.264583"
         x="-68.655823"
         y="-91.577011">CLUEAGEDDON</tspan></text><path
       d="m 72.140313,17.056097 c -0.123223,0.353571 -0.257962,0.705753 -0.454221,1.025789 -0.114665,0.183261 -0.22748,0.368094 -0.358427,0.540115 -0.225028,0.27503 -0.448716,0.555102 -0.729158,0.775505 -0.240477,0.22415 -0.519994,0.397466 -0.792433,0.577812 -0.156341,0.08289 -0.307223,0.17785 -0.471428,0.244271 0.395246,-0.441084 0.681192,-0.98971 0.777217,-1.57904 0.06832,-0.465691 0.05291,-0.948312 -0.09223,-1.398416 -0.02641,-0.05967 0.03432,-0.105969 0.06096,-0.151854 0.583594,-0.10657 1.115152,-0.426421 1.533525,-0.84484 0.242744,-0.247323 0.449225,-0.534287 0.586231,-0.854831 0.07447,-0.137515 0.117811,-0.287889 0.171836,-0.433915 0.07771,0.705892 -0.01096,1.426261 -0.231874,2.099404 m -3.2696,2.983793 c -0.131086,0.11337 -0.271654,0.2155 -0.416893,0.309536 0.143667,-0.379704 0.135942,-0.828975 -0.07697,-1.180927 -0.09066,-0.177155 -0.233169,-0.318555 -0.384237,-0.44372 0.219617,-0.07428 0.441362,-0.146442 0.645067,-0.259951 0.386319,-0.187516 0.72814,-0.461991 1.014688,-0.782397 0.06402,0.33789 0.06138,0.689703 -0.02743,1.022967 -0.105599,0.510559 -0.384329,0.974353 -0.754227,1.334492 m -1.347767,0.60575 c 0.0902,-0.172761 0.195426,-0.336826 0.288953,-0.507736 0.08344,-0.14339 0.157866,-0.292052 0.249312,-0.430354 0.06055,0.389094 -0.184695,0.786422 -0.538265,0.93809 m -0.938923,-1.182638 c 0.362128,-0.004 0.724255,-0.0029 1.086521,-6.42e-4 -0.180716,0.31615 -0.363145,0.631653 -0.549412,0.944473 -0.177063,-0.31578 -0.363608,-0.626195 -0.537109,-0.943825 m -0.24538,0.847384 c -0.126229,-0.171657 -0.159717,-0.394882 -0.144176,-0.60349 0.187794,0.307269 0.356716,0.625686 0.540763,0.935176 -0.156711,-0.07465 -0.306576,-0.178636 -0.396587,-0.331692 m -0.309814,-1.375844 c -0.176276,0.211292 -0.29899,0.473601 -0.318278,0.751407 -0.0061,0.160734 -0.01304,0.326095 0.03478,0.48188 0.02299,0.07646 0.05782,0.148431 0.08409,0.223734 -0.601865,-0.339833 -1.069592,-0.928007 -1.235137,-1.607256 -0.09246,-0.368418 -0.11226,-0.759084 -0.03622,-1.132359 0.167858,0.14413 0.305651,0.321562 0.485581,0.45163 0.356901,0.28368 0.772498,0.487524 1.206876,0.618286 -0.0716,0.07345 -0.151068,0.13844 -0.221699,0.212678 m -1.63362,1.004975 c -0.485627,-0.302366 -0.939431,-0.665465 -1.302761,-1.112238 -0.178774,-0.203798 -0.330628,-0.42952 -0.478782,-0.656399 -0.10361,-0.196952 -0.220634,-0.387383 -0.306853,-0.593216 -0.172853,-0.399408 -0.294873,-0.820371 -0.375495,-1.248273 -0.05583,-0.413146 -0.104165,-0.830964 -0.06739,-1.248042 0.105322,0.282616 0.227619,0.563058 0.413609,0.802286 0.161845,0.21402 0.335993,0.420825 0.543029,0.592013 0.131224,0.09297 0.253105,0.199959 0.394968,0.277019 0.176138,0.09894 0.361341,0.180763 0.549042,0.254493 0.131641,0.05407 0.275308,0.06244 0.409677,0.10546 0.0494,0.01258 0.03178,0.06971 0.021,0.104582 -0.105183,0.3248 -0.141724,0.668148 -0.13844,1.008674 0.0192,0.307409 0.0549,0.617823 0.165268,0.90747 0.148662,0.378501 0.342145,0.746503 0.620506,1.044753 -0.155555,-0.06642 -0.307917,-0.142048 -0.447375,-0.238582 m -1.636812,-5.376682 c 0.349916,0.155832 0.761721,0.150883 1.114551,0.006 -0.08488,0.350749 -0.130577,0.711303 -0.105877,1.072829 -0.0034,0.318833 0.08553,0.626473 0.170495,0.930134 -0.185065,-0.07304 -0.377253,-0.134693 -0.542104,-0.250515 -0.532483,-0.326326 -0.949515,-0.851778 -1.119778,-1.459518 -0.08141,-0.24464 -0.09931,-0.504961 -0.112815,-0.760934 0.167858,0.188441 0.355189,0.373043 0.595528,0.462037 m -0.370778,-1.381163 c 0.07961,0.106617 0.139366,0.226232 0.206343,0.340804 0.11707,0.1976 0.230671,0.397189 0.346632,0.595436 -0.187424,-0.08714 -0.35357,-0.224381 -0.45015,-0.411111 -0.0901,-0.158607 -0.106247,-0.345846 -0.102825,-0.525129 m 1.474552,-0.243484 c -0.173131,0.317445 -0.357549,0.628831 -0.537895,0.942345 -0.177202,-0.314948 -0.362914,-0.625131 -0.536276,-0.942068 0.357918,-0.0037 0.716114,-0.0033 1.074171,-2.75e-4 m -0.143575,-0.458985 c -0.27008,0.01059 -0.540254,0.0072 -0.810427,0.0037 0.251672,-0.129004 0.557553,-0.129559 0.810427,-0.0037 m 0.8719,-0.954047 c 0.311293,-0.03021 0.623928,0.02599 0.922779,0.111658 0.252828,0.0858 0.503436,0.187563 0.722544,0.344135 0.07276,0.05773 0.145655,0.115127 0.221744,0.168459 -0.401443,0.07572 -0.778789,0.247693 -1.128843,0.455886 -0.21675,0.125997 -0.396403,0.303707 -0.587804,0.463933 -0.03941,-0.20426 -0.143852,-0.38766 -0.24552,-0.56574 -0.153658,-0.195333 -0.345198,-0.367632 -0.573603,-0.46842 -0.166563,-0.08539 -0.356068,-0.106479 -0.539329,-0.125165 0.366753,-0.219895 0.78508,-0.342146 1.208032,-0.384746 m 0.119938,-0.778419 c 0.199681,-0.100511 0.406671,-0.184834 0.614076,-0.267491 0.695993,-0.238165 1.436437,-0.361109 2.171886,-0.304216 0.322163,0.03395 0.648351,0.06193 0.959413,0.159162 0.173501,0.05689 0.354912,0.08978 0.522769,0.163649 0.430677,0.175305 0.855988,0.375032 1.228384,0.658665 -0.331137,-0.07956 -0.672958,-0.106986 -1.012698,-0.08645 -0.755801,0.05116 -1.474088,0.420917 -1.995517,0.969543 -0.0389,0.04852 -0.113231,0.06087 -0.16721,0.03978 -0.270312,-0.28738 -0.584103,-0.539329 -0.940865,-0.708714 -0.613151,-0.312033 -1.333197,-0.375818 -2.001669,-0.23946 0.200838,-0.137284 0.397327,-0.286871 0.621431,-0.384468 m 6.01865,1.122322 c -0.272162,0.01827 -0.525128,0.137792 -0.751452,0.284419 -0.270497,0.207961 -0.471982,0.511391 -0.537109,0.850207 -0.207498,-0.17401 -0.410324,-0.360555 -0.654271,-0.482205 -0.172992,-0.104073 -0.360555,-0.179283 -0.547608,-0.253244 -0.158006,-0.05305 -0.320083,-0.09154 -0.481511,-0.131964 0.421518,-0.36865 0.970283,-0.56241 1.520481,-0.611903 0.503112,-0.03289 1.014596,0.0914 1.45147,0.34469 m 0.208192,0.470918 c 0.106802,0.0099 0.207637,0.04945 0.30764,0.08645 -0.266149,0.0097 -0.53253,0.0086 -0.798494,0.0014 0.158006,-0.05421 0.320869,-0.106617 0.490854,-0.08788 m 0.451446,0.544741 c -0.172206,0.318417 -0.360047,0.628184 -0.536462,0.944195 -0.186498,-0.312542 -0.36999,-0.62712 -0.549458,-0.943918 0.361942,-0.0031 0.723931,-0.0029 1.08592,-2.75e-4 m 0.401027,0.245612 c 0.01355,0.203705 -0.02946,0.410417 -0.132519,0.586416 -0.101437,0.150513 -0.238304,0.282338 -0.408521,0.348529 0.175721,-0.314301 0.35468,-0.627028 0.54104,-0.934945 m -1.812117,0.469068 c -0.05967,-0.143759 -0.06346,-0.302227 -0.06429,-0.455561 0.180809,0.301487 0.356669,0.606073 0.525452,0.914499 -0.200282,-0.0907 -0.369482,-0.257129 -0.461158,-0.458938 M 69.005495,15.7545 c 0.267444,-0.467079 0.539745,-0.931337 0.808854,-1.397491 0.08654,0.281552 0.182706,0.564307 0.201208,0.860937 0.0494,0.490253 -0.0562,0.984807 -0.250978,1.432876 -0.192835,-0.343996 -0.449225,-0.654179 -0.759084,-0.896322 m -1.48482,2.567127 c 0.261015,-0.455239 0.522678,-0.910106 0.781056,-1.366824 0.373136,0.137237 0.767225,0.223039 1.165986,0.21439 -0.242374,0.324106 -0.547886,0.600524 -0.895721,0.804876 -0.32665,0.175028 -0.6817,0.308426 -1.051321,0.347558 m 0.03284,0.70973 c -0.287935,0.0084 -0.576101,0.0079 -0.863897,6.95e-4 0.272301,-0.118458 0.594649,-0.137515 0.863897,-6.95e-4 m -1.6487,-2.089968 c 0.263467,0.460603 0.527997,0.920605 0.790862,1.381579 -0.23317,-0.04112 -0.462083,-0.106617 -0.684106,-0.18895 -0.476237,-0.207175 -0.919171,-0.525453 -1.212472,-0.962559 0.378825,-0.0054 0.756679,-0.07956 1.105716,-0.23007 m 0.617361,-3.741305 c -0.05389,0.182475 -0.0858,0.370407 -0.11559,0.558062 -0.544093,5.12e-4 -1.08814,0.0012 -1.632048,-2.75e-4 0.119661,-0.160457 0.243762,-0.319758 0.396124,-0.450335 0.157127,-0.141909 0.336688,-0.255048 0.514028,-0.368973 0.179514,-0.114573 0.38049,-0.189875 0.584196,-0.247694 0.173131,-0.0525 0.350194,-0.09297 0.529754,-0.115636 -0.11337,0.198247 -0.200699,0.409631 -0.276464,0.624854 m -0.852611,3.342032 c -0.239461,0.0778 -0.482991,0.147691 -0.735588,0.160827 0.147923,-0.205278 0.312127,-0.400102 0.507414,-0.561115 0.07489,0.134093 0.15486,0.265271 0.228174,0.400288 m -0.04556,-1.083884 c -0.222947,-0.402739 -0.465553,-0.794099 -0.69368,-1.193924 0.485997,-0.004 0.972271,-0.0014 1.458361,-0.0014 0.0041,0.122945 0.0204,0.24478 0.03613,0.366522 0.02512,0.171188 0.08418,0.334698 0.128588,0.5014 -0.19834,0.03289 -0.395246,0.08331 -0.577905,0.168968 -0.116377,0.05477 -0.233309,0.108097 -0.351489,0.158468 m 0.847292,0.607647 c -0.111751,0.09283 -0.23428,0.170911 -0.352923,0.254077 -0.08812,-0.155555 -0.183631,-0.3069 -0.265964,-0.465738 0.286594,-0.137515 0.588451,-0.255418 0.907377,-0.281783 0.01878,0.04043 0.03784,0.08118 0.05726,0.121464 -0.112445,0.126507 -0.216749,0.261756 -0.345753,0.37198 m 0.973845,-0.508199 c 0.245797,0.05319 0.496913,0.100789 0.725364,0.211013 0.0562,0.02558 0.112307,0.05157 0.168598,0.07729 -0.08469,0.162353 -0.17549,0.32133 -0.26897,0.478643 -0.264947,-0.170033 -0.506719,-0.379936 -0.697612,-0.63244 0.02414,-0.04487 0.04834,-0.08969 0.07262,-0.134508 m 0.334189,-1.802311 c -0.01735,-0.15981 -0.03807,-0.320544 -0.08631,-0.474387 -0.07082,-0.247462 -0.189551,-0.476608 -0.302736,-0.706169 0.356484,0.02216 0.702006,0.132473 1.025187,0.281413 0.410972,0.21735 0.791647,0.509494 1.055391,0.899513 -0.56389,0.0041 -1.127779,0.0056 -1.691531,-3.67e-4 m 1.490278,2.948223 c -0.246399,-0.02253 -0.497376,-0.0574 -0.725273,-0.159764 0.07586,-0.132751 0.154213,-0.264299 0.227619,-0.398483 0.194778,0.157497 0.354912,0.352599 0.497654,0.558247 M 68.572277,15.455218 C 68.27819,15.305491 67.969117,15.17089 67.639692,15.1294 c 0.03691,-0.133445 0.07724,-0.265918 0.107958,-0.400889 0.02734,-0.153842 0.04205,-0.309813 0.0531,-0.465737 0.486645,3.67e-4 0.973336,-0.0027 1.459934,0.0017 -0.227619,0.397975 -0.456163,0.795534 -0.688407,1.190733 m -1.474412,0.613891 c 0.212818,0.256575 0.463795,0.484147 0.750944,0.653116 -0.251302,0.428317 -0.4977,0.859965 -0.755014,1.284629 -0.245335,-0.431186 -0.499504,-0.857237 -0.741462,-1.290365 0.15301,-0.109947 0.315595,-0.208701 0.450659,-0.341961 0.102962,-0.09709 0.194408,-0.205971 0.294873,-0.305419 m -0.230764,-2.310144 c 0.03691,-0.26379 0.118735,-0.520133 0.228775,-0.761721 0.109947,0.241079 0.189181,0.498486 0.225399,0.761721 -0.151392,0 -0.302876,1.44e-4 -0.454174,0 m 0.47522,0.503806 c -0.01485,0.280996 -0.08169,0.557738 -0.18229,0.819678 -0.04519,-0.008 -0.122205,0.02599 -0.137145,-0.03742 -0.103656,-0.247185 -0.156572,-0.515323 -0.174056,-0.782397 0.164435,-5.51e-4 0.328917,-5.51e-4 0.493491,1.44e-4 m -3.322793,-0.353848 c -0.08275,0.09616 -0.196767,0.155554 -0.307501,0.212586 0.180347,-0.318925 0.368048,-0.633503 0.551679,-0.950578 0.02641,0.265918 -0.05847,0.545064 -0.244178,0.737992 m 0.244965,1.096188 c 0.02507,-0.214668 0.103101,-0.41717 0.162076,-0.623651 0.262448,0.453388 0.526747,0.905897 0.785218,1.361505 -0.303153,0.234511 -0.544047,0.53882 -0.754367,0.858023 -0.04908,-0.142418 -0.112537,-0.280719 -0.140244,-0.429659 -0.08011,-0.382064 -0.121372,-0.778974 -0.05268,-1.166218 m 7.76194,-0.971902 c 0.01679,0.40223 -0.08053,0.802286 -0.238119,1.169641 -0.293855,0.615186 -0.81977,1.132405 -1.469463,1.345593 0.05347,-0.180023 0.10893,-0.360416 0.13622,-0.54673 0.06425,-0.477394 0.05139,-0.969543 -0.08011,-1.434726 0.260321,0.05874 0.536692,0.101067 0.799002,0.02822 0.160643,-0.02812 0.302875,-0.112584 0.445016,-0.188441 0.162631,-0.09057 0.295151,-0.226093 0.407457,-0.373553 m 0.80779,0.250608 C 72.771689,13.870339 72.627101,13.476343 72.462666,13.094557 72.228063,12.570076 71.927778,12.073301 71.549739,11.641376 71.193116,11.247934 70.804993,10.878313 70.359469,10.588713 70.174358,10.468683 69.994427,10.338337 69.79396,10.245227 69.560189,10.135696 69.330211,10.014231 69.081546,9.941565 68.817941,9.836105 68.540367,9.775095 68.265846,9.70747 67.759219,9.6096 67.241075,9.588411 66.726539,9.61505 66.179578,9.65326 65.63567,9.758023 65.122614,9.95627 c -0.185481,0.05088 -0.355837,0.141215 -0.528829,0.22341 -0.427162,0.193252 -0.812647,0.467125 -1.1794,0.758205 -0.400981,0.340804 -0.772082,0.721896 -1.075466,1.154886 -0.187701,0.282338 -0.367262,0.571707 -0.505471,0.882538 -0.08261,0.181457 -0.15486,0.367215 -0.228404,0.552511 -0.135574,0.361064 -0.196398,0.743312 -0.265733,1.121212 -0.03705,0.262865 -0.0482,0.528505 -0.04468,0.793729 -0.0049,0.286547 0.01605,0.57328 0.0611,0.856265 0.06305,0.345846 0.122529,0.694745 0.243762,1.025928 0.03603,0.08724 0.07345,0.173963 0.107357,0.262125 0.163926,0.427161 0.393488,0.825783 0.646085,1.20521 0.217027,0.289785 0.45015,0.568793 0.708667,0.821944 0.211846,0.193483 0.427161,0.3847 0.656492,0.557137 0.223918,0.141863 0.44002,0.298389 0.678046,0.416106 0.335947,0.164205 0.675133,0.329009 1.038277,0.422907 0.536461,0.181549 1.10419,0.241217 1.667248,0.250237 0.462361,-0.01355 0.928793,-0.04177 1.379081,-0.156572 0.133352,-0.03266 0.263466,-0.07669 0.395246,-0.115405 0.401906,-0.10819 0.771665,-0.306206 1.140361,-0.495295 0.27429,-0.162307 0.545111,-0.334467 0.785403,-0.545989 0.182012,-0.155647 0.370222,-0.306206 0.528922,-0.4872 0.360277,-0.375819 0.678139,-0.795163 0.918894,-1.259328 0.167904,-0.289646 0.279378,-0.606305 0.408382,-0.91413 0.06355,-0.184556 0.112861,-0.373968 0.150189,-0.565555 0.05171,-0.269757 0.111982,-0.538543 0.127894,-0.813572 0.03071,-0.542567 0.01721,-1.091841 -0.101807,-1.623768"
       style="fill:#ffffff;fill-opacity:1;fill-rule:nonzero;stroke:#000000;stroke-width:0.0462545;stroke-opacity:1"
       id="path20" /><path
       d="m 22.442747,94.773562 c -0.123223,0.353571 -0.257962,0.705753 -0.454221,1.025789 -0.114665,0.183261 -0.22748,0.368094 -0.358427,0.540115 -0.225028,0.27503 -0.448716,0.555102 -0.729158,0.775505 -0.240477,0.22415 -0.519994,0.397466 -0.792433,0.577812 -0.156341,0.08289 -0.307223,0.17785 -0.471428,0.244271 0.395246,-0.441084 0.681192,-0.98971 0.777217,-1.57904 0.06832,-0.465691 0.05291,-0.948312 -0.09223,-1.398416 -0.02641,-0.05967 0.03432,-0.105969 0.06096,-0.151854 0.583594,-0.10657 1.115152,-0.426421 1.533525,-0.84484 0.242744,-0.247323 0.449225,-0.534287 0.586231,-0.854831 0.07447,-0.137515 0.117811,-0.287889 0.171836,-0.433915 0.07771,0.705892 -0.01096,1.426261 -0.231874,2.099404 m -3.2696,2.983793 c -0.131086,0.11337 -0.271654,0.2155 -0.416893,0.309536 0.143667,-0.379704 0.135942,-0.828975 -0.07697,-1.180927 -0.09066,-0.177155 -0.233169,-0.318555 -0.384237,-0.44372 0.219617,-0.07428 0.441362,-0.146442 0.645067,-0.259951 0.386319,-0.187516 0.72814,-0.461991 1.014688,-0.782397 0.06402,0.33789 0.06138,0.689703 -0.02743,1.022967 -0.105599,0.510559 -0.384329,0.974353 -0.754227,1.334492 m -1.347767,0.60575 c 0.0902,-0.172761 0.195426,-0.336826 0.288953,-0.507736 0.08344,-0.14339 0.157866,-0.292052 0.249312,-0.430354 0.06055,0.389094 -0.184695,0.786422 -0.538265,0.93809 m -0.938923,-1.182638 c 0.362128,-0.004 0.724255,-0.0029 1.086521,-6.42e-4 -0.180716,0.31615 -0.363145,0.631653 -0.549412,0.944473 -0.177063,-0.31578 -0.363608,-0.626195 -0.537109,-0.943825 m -0.24538,0.847384 c -0.126229,-0.171657 -0.159717,-0.394882 -0.144176,-0.60349 0.187794,0.307269 0.356716,0.625686 0.540763,0.935176 -0.156711,-0.07465 -0.306576,-0.178636 -0.396587,-0.331692 m -0.309814,-1.375844 c -0.176276,0.211292 -0.29899,0.473601 -0.318278,0.751407 -0.0061,0.160734 -0.01304,0.326095 0.03478,0.48188 0.02299,0.07646 0.05782,0.148431 0.08409,0.223734 -0.601865,-0.339833 -1.069592,-0.928007 -1.235137,-1.607256 -0.09246,-0.368418 -0.11226,-0.759084 -0.03622,-1.132359 0.167858,0.14413 0.305651,0.321562 0.485581,0.45163 0.356901,0.28368 0.772498,0.487524 1.206876,0.618286 -0.0716,0.07345 -0.151068,0.13844 -0.221699,0.212678 m -1.63362,1.004975 c -0.485627,-0.302366 -0.939431,-0.665465 -1.302761,-1.112238 -0.178774,-0.203798 -0.330628,-0.42952 -0.478782,-0.656399 -0.10361,-0.196952 -0.220634,-0.387383 -0.306853,-0.593216 -0.172853,-0.399408 -0.294873,-0.820371 -0.375495,-1.248273 -0.05583,-0.413146 -0.104165,-0.830964 -0.06739,-1.248042 0.105322,0.282616 0.227619,0.563058 0.413609,0.802286 0.161845,0.21402 0.335993,0.420825 0.543029,0.592013 0.131224,0.09297 0.253105,0.199959 0.394968,0.277019 0.176138,0.09894 0.361341,0.180763 0.549042,0.254493 0.131641,0.05407 0.275308,0.06244 0.409677,0.10546 0.0494,0.01258 0.03178,0.06971 0.021,0.104582 -0.105183,0.3248 -0.141724,0.668148 -0.13844,1.008674 0.0192,0.307409 0.0549,0.617823 0.165268,0.90747 0.148662,0.378501 0.342145,0.746503 0.620506,1.044753 -0.155555,-0.06642 -0.307917,-0.142048 -0.447375,-0.238582 M 13.060823,92.2803 c 0.349916,0.155832 0.761721,0.150883 1.114551,0.006 -0.08488,0.350749 -0.130577,0.711303 -0.105877,1.072829 -0.0034,0.318833 0.08553,0.626473 0.170495,0.930134 C 14.054927,94.216223 13.862739,94.15457 13.697888,94.038748 13.165405,93.712422 12.748373,93.18697 12.57811,92.57923 12.4967,92.33459 12.4788,92.074269 12.465295,91.818296 c 0.167858,0.188441 0.355189,0.373043 0.595528,0.462037 M 12.690045,90.89917 c 0.07961,0.106617 0.139366,0.226232 0.206343,0.340804 0.11707,0.1976 0.230671,0.397189 0.346632,0.595436 -0.187424,-0.08714 -0.35357,-0.224381 -0.45015,-0.411111 -0.0901,-0.158607 -0.106247,-0.345846 -0.102825,-0.525129 m 1.474552,-0.243484 c -0.173131,0.317445 -0.357549,0.628831 -0.537895,0.942345 -0.177202,-0.314948 -0.362914,-0.625131 -0.536276,-0.942068 0.357918,-0.0037 0.716114,-0.0033 1.074171,-2.75e-4 m -0.143575,-0.458985 c -0.27008,0.01059 -0.540254,0.0072 -0.810427,0.0037 0.251672,-0.129004 0.557553,-0.129559 0.810427,-0.0037 m 0.8719,-0.954047 c 0.311293,-0.03021 0.623928,0.02599 0.922779,0.111658 0.252828,0.0858 0.503436,0.187563 0.722544,0.344135 0.07276,0.05773 0.145655,0.115127 0.221744,0.168459 -0.401443,0.07572 -0.778789,0.247693 -1.128843,0.455886 -0.21675,0.125997 -0.396403,0.303707 -0.587804,0.463933 -0.03941,-0.20426 -0.143852,-0.38766 -0.24552,-0.56574 -0.153658,-0.195333 -0.345198,-0.367632 -0.573603,-0.46842 -0.166563,-0.08539 -0.356068,-0.106479 -0.539329,-0.125165 0.366753,-0.219895 0.78508,-0.342146 1.208032,-0.384746 m 0.119938,-0.778419 c 0.199681,-0.100511 0.406671,-0.184834 0.614076,-0.267491 0.695993,-0.238165 1.436437,-0.361109 2.171886,-0.304216 0.322163,0.03395 0.648351,0.06193 0.959413,0.159162 0.173501,0.05689 0.354912,0.08978 0.522769,0.163649 0.430677,0.175305 0.855988,0.375032 1.228384,0.658665 -0.331137,-0.07956 -0.672958,-0.106986 -1.012698,-0.08645 -0.755801,0.05116 -1.474088,0.420917 -1.995517,0.969543 -0.0389,0.04852 -0.113231,0.06087 -0.16721,0.03978 -0.270312,-0.28738 -0.584103,-0.539329 -0.940865,-0.708714 -0.613151,-0.312033 -1.333197,-0.375818 -2.001669,-0.23946 0.200838,-0.137284 0.397327,-0.286871 0.621431,-0.384468 m 6.01865,1.122322 c -0.272162,0.01827 -0.525128,0.137792 -0.751452,0.284419 -0.270497,0.207961 -0.471982,0.511391 -0.537109,0.850207 -0.207498,-0.17401 -0.410324,-0.360555 -0.654271,-0.482205 -0.172992,-0.104073 -0.360555,-0.179283 -0.547608,-0.253244 -0.158006,-0.05305 -0.320083,-0.09154 -0.481511,-0.131964 0.421518,-0.36865 0.970283,-0.56241 1.520481,-0.611903 0.503112,-0.03289 1.014596,0.0914 1.45147,0.34469 m 0.208192,0.470918 c 0.106802,0.0099 0.207637,0.04945 0.30764,0.08645 -0.266149,0.0097 -0.53253,0.0086 -0.798494,0.0014 0.158006,-0.05421 0.320869,-0.106617 0.490854,-0.08788 m 0.451446,0.544741 c -0.172206,0.318417 -0.360047,0.628184 -0.536462,0.944195 -0.186498,-0.312542 -0.36999,-0.62712 -0.549458,-0.943918 0.361942,-0.0031 0.723931,-0.0029 1.08592,-2.75e-4 m 0.401027,0.245612 c 0.01355,0.203705 -0.02946,0.410417 -0.132519,0.586416 -0.101437,0.150513 -0.238304,0.282338 -0.408521,0.348529 0.175721,-0.314301 0.35468,-0.627028 0.54104,-0.934945 m -1.812117,0.469068 c -0.05967,-0.143759 -0.06346,-0.302227 -0.06429,-0.455561 0.180809,0.301487 0.356669,0.606073 0.525452,0.914499 -0.200282,-0.0907 -0.369482,-0.257129 -0.461158,-0.458938 m -0.972133,2.155095 c 0.267444,-0.467079 0.539745,-0.931337 0.808854,-1.397491 0.08654,0.281552 0.182706,0.564307 0.201208,0.860937 0.0494,0.490253 -0.0562,0.984807 -0.250978,1.432876 -0.192835,-0.343996 -0.449225,-0.654179 -0.759084,-0.896322 m -1.48482,2.567127 c 0.261015,-0.455239 0.522678,-0.910106 0.781056,-1.366824 0.373136,0.137237 0.767225,0.223039 1.165986,0.21439 -0.242374,0.324106 -0.547886,0.600524 -0.895721,0.804876 -0.32665,0.175028 -0.6817,0.308426 -1.051321,0.347558 m 0.03284,0.70973 c -0.287935,0.0084 -0.576101,0.0079 -0.863897,6.95e-4 0.272301,-0.118458 0.594649,-0.137515 0.863897,-6.95e-4 m -1.6487,-2.089968 c 0.263467,0.460603 0.527997,0.920605 0.790862,1.381579 -0.23317,-0.04112 -0.462083,-0.106617 -0.684106,-0.18895 -0.476237,-0.207175 -0.919171,-0.525453 -1.212472,-0.962559 0.378825,-0.0054 0.756679,-0.07956 1.105716,-0.23007 m 0.617361,-3.741305 c -0.05389,0.182475 -0.0858,0.370407 -0.11559,0.558062 -0.544093,5.12e-4 -1.08814,0.0012 -1.632048,-2.75e-4 0.119661,-0.160457 0.243762,-0.319758 0.396124,-0.450335 0.157127,-0.141909 0.336688,-0.255048 0.514028,-0.368973 0.179514,-0.114573 0.38049,-0.189875 0.584196,-0.247694 0.173131,-0.0525 0.350194,-0.09297 0.529754,-0.115636 -0.11337,0.198247 -0.200699,0.409631 -0.276464,0.624854 m -0.852611,3.342032 c -0.239461,0.0778 -0.482991,0.147691 -0.735588,0.160827 0.147923,-0.205278 0.312127,-0.400102 0.507414,-0.561115 0.07489,0.134093 0.15486,0.265271 0.228174,0.400288 M 15.926439,93.1757 c -0.222947,-0.402739 -0.465553,-0.794099 -0.69368,-1.193924 0.485997,-0.004 0.972271,-0.0014 1.458361,-0.0014 0.0041,0.122945 0.0204,0.24478 0.03613,0.366522 0.02512,0.171188 0.08418,0.334698 0.128588,0.5014 -0.19834,0.03289 -0.395246,0.08331 -0.577905,0.168968 -0.116377,0.05477 -0.233309,0.108097 -0.351489,0.158468 m 0.847292,0.607647 c -0.111751,0.09283 -0.23428,0.170911 -0.352923,0.254077 -0.08812,-0.155555 -0.183631,-0.3069 -0.265964,-0.465738 0.286594,-0.137515 0.588451,-0.255418 0.907377,-0.281783 0.01878,0.04043 0.03784,0.08118 0.05726,0.121464 -0.112445,0.126507 -0.216749,0.261756 -0.345753,0.37198 m 0.973845,-0.508199 c 0.245797,0.05319 0.496913,0.100789 0.725364,0.211013 0.0562,0.02558 0.112307,0.05157 0.168598,0.07729 -0.08469,0.162353 -0.17549,0.32133 -0.26897,0.478643 -0.264947,-0.170033 -0.506719,-0.379936 -0.697612,-0.63244 0.02414,-0.04487 0.04834,-0.08969 0.07262,-0.134508 m 0.334189,-1.802311 c -0.01735,-0.15981 -0.03807,-0.320544 -0.08631,-0.474387 -0.07082,-0.247462 -0.189551,-0.476608 -0.302736,-0.706169 0.356484,0.02216 0.702006,0.132473 1.025187,0.281413 0.410972,0.21735 0.791647,0.509494 1.055391,0.899513 -0.56389,0.0041 -1.127779,0.0056 -1.691531,-3.67e-4 m 1.490278,2.948223 c -0.246399,-0.02253 -0.497376,-0.0574 -0.725273,-0.159764 0.07586,-0.132751 0.154213,-0.264299 0.227619,-0.398483 0.194778,0.157497 0.354912,0.352599 0.497654,0.558247 m -0.697335,-1.248412 c -0.294087,-0.149727 -0.60316,-0.284328 -0.932585,-0.325818 0.03691,-0.133445 0.07724,-0.265918 0.107958,-0.400889 0.02734,-0.153842 0.04205,-0.309813 0.0531,-0.465737 0.486645,3.67e-4 0.973336,-0.0027 1.459934,0.0017 -0.227619,0.397975 -0.456163,0.795534 -0.688407,1.190733 m -1.474412,0.613891 c 0.212818,0.256575 0.463795,0.484147 0.750944,0.653116 -0.251302,0.428317 -0.4977,0.859965 -0.755014,1.284629 -0.245335,-0.431186 -0.499504,-0.857237 -0.741462,-1.290365 0.15301,-0.109947 0.315595,-0.208701 0.450659,-0.341961 0.102962,-0.09709 0.194408,-0.205971 0.294873,-0.305419 m -0.230764,-2.310144 c 0.03691,-0.26379 0.118735,-0.520133 0.228775,-0.761721 0.109947,0.241079 0.189181,0.498486 0.225399,0.761721 -0.151392,0 -0.302876,1.44e-4 -0.454174,0 m 0.47522,0.503806 c -0.01485,0.280996 -0.08169,0.557738 -0.18229,0.819678 -0.04519,-0.008 -0.122205,0.02599 -0.137145,-0.03742 -0.103656,-0.247185 -0.156572,-0.515323 -0.174056,-0.782397 0.164435,-5.51e-4 0.328917,-5.51e-4 0.493491,1.44e-4 m -3.322793,-0.353848 c -0.08275,0.09616 -0.196767,0.155554 -0.307501,0.212586 0.180347,-0.318925 0.368048,-0.633503 0.551679,-0.950578 0.02641,0.265918 -0.05847,0.545064 -0.244178,0.737992 m 0.244965,1.096188 c 0.02507,-0.214668 0.103101,-0.41717 0.162076,-0.623651 0.262448,0.453388 0.526747,0.905897 0.785218,1.361505 -0.303153,0.234511 -0.544047,0.53882 -0.754367,0.858023 -0.04908,-0.142418 -0.112537,-0.280719 -0.140244,-0.429659 -0.08011,-0.382064 -0.121372,-0.778974 -0.05268,-1.166218 m 7.76194,-0.971902 c 0.01679,0.40223 -0.08053,0.802286 -0.238119,1.169641 -0.293855,0.615186 -0.81977,1.132405 -1.469463,1.345593 0.05347,-0.180023 0.10893,-0.360416 0.13622,-0.54673 0.06425,-0.477394 0.05139,-0.969543 -0.08011,-1.434726 0.260321,0.05874 0.536692,0.101067 0.799002,0.02822 0.160643,-0.02812 0.302875,-0.112584 0.445016,-0.188441 0.162631,-0.09057 0.295151,-0.226093 0.407457,-0.373553 m 0.80779,0.250608 c -0.06254,-0.413476 -0.207128,-0.807472 -0.371563,-1.189258 -0.234603,-0.524481 -0.534888,-1.021256 -0.912927,-1.453181 -0.356623,-0.393442 -0.744746,-0.763063 -1.19027,-1.052663 -0.185111,-0.12003 -0.365042,-0.250376 -0.565509,-0.343486 -0.233771,-0.109531 -0.463749,-0.230996 -0.712414,-0.303662 -0.263605,-0.10546 -0.541179,-0.16647 -0.8157,-0.234095 -0.506627,-0.09787 -1.024771,-0.119059 -1.539307,-0.09242 -0.546961,0.03821 -1.090869,0.142973 -1.603925,0.34122 -0.185481,0.05088 -0.355837,0.141215 -0.528829,0.22341 -0.427162,0.193252 -0.812647,0.467125 -1.1794,0.758205 -0.400981,0.340804 -0.772082,0.721896 -1.075466,1.154886 -0.187701,0.282338 -0.367262,0.571707 -0.505471,0.882538 -0.08261,0.181457 -0.15486,0.367215 -0.228404,0.552511 -0.135574,0.361064 -0.196398,0.743312 -0.265733,1.121212 -0.03705,0.262865 -0.0482,0.528505 -0.04468,0.793729 -0.0049,0.286547 0.01605,0.57328 0.0611,0.856265 0.06305,0.345846 0.122529,0.694745 0.243762,1.025928 0.03603,0.08724 0.07345,0.173963 0.107357,0.262125 0.163926,0.427161 0.393488,0.825783 0.646085,1.20521 0.217027,0.289785 0.45015,0.568793 0.708667,0.821944 0.211846,0.193483 0.427161,0.3847 0.656492,0.557137 0.223918,0.141863 0.44002,0.298389 0.678046,0.416106 0.335947,0.164205 0.675133,0.329009 1.038277,0.422907 0.536461,0.181549 1.10419,0.241217 1.667248,0.250237 0.462361,-0.01355 0.928793,-0.04177 1.379081,-0.156572 0.133352,-0.03266 0.263466,-0.07669 0.395246,-0.115405 0.401906,-0.10819 0.771665,-0.306206 1.140361,-0.495295 0.27429,-0.162307 0.545111,-0.334467 0.785403,-0.545989 0.182012,-0.155647 0.370222,-0.306206 0.528922,-0.4872 0.360277,-0.375819 0.678139,-0.795163 0.918894,-1.259328 0.167904,-0.289646 0.279378,-0.606305 0.408382,-0.91413 0.06355,-0.184556 0.112861,-0.373968 0.150189,-0.565555 0.05171,-0.269757 0.111982,-0.538543 0.127894,-0.813572 0.03071,-0.542567 0.01721,-1.091841 -0.101807,-1.623768"
       style="fill:#ffffff;fill-opacity:1;fill-rule:nonzero;stroke:#000000;stroke-width:0.0462545;stroke-opacity:1"
       id="path20-9" /><text
       xml:space="preserve"
       transform="scale(0.26458333)"
       id="text1"
       style="writing-mode:lr-tb;direction:ltr;white-space:pre;shape-inside:url(#rect2);display:inline;fill:#000000" /><text
       xml:space="preserve"
       style="font-size:7.05555556px;writing-mode:lr-tb;direction:ltr;fill:#ffffff;stroke:#000000;stroke-width:0.264583;stroke-opacity:1"
       x="12.887033"
       y="25.545977"
       id="text4"><tspan
         sodipodi:role="line"
         id="tspan4"
         style="stroke-width:0.264583;font-size:7.05555556px"
         x="12.887033"
         y="25.545977" /></text><text
       xml:space="preserve"
       style="font-style:normal;font-variant:normal;font-weight:normal;font-stretch:normal;font-size:4.23333px;font-family:'Arial Rounded MT Bold';-inkscape-font-specification:'Arial Rounded MT Bold, ';text-align:center;writing-mode:lr-tb;direction:ltr;text-anchor:middle;fill:#ffffff;stroke:none;stroke-width:0.264583;stroke-opacity:1"
       x="41.778938"
       y="27.940912"
       id="text5"><tspan
         sodipodi:role="line"
         style="font-style:normal;font-variant:normal;font-weight:normal;font-stretch:normal;font-size:4.23333px;font-family:'Arial Rounded MT Bold';-inkscape-font-specification:'Arial Rounded MT Bold, ';stroke:none;stroke-width:0.264583"
         x="41.778938"
         y="27.940912"
         id="tspan62">Hot Tub Party!!!</tspan></text><text
       xml:space="preserve"
       style="font-style:normal;font-variant:normal;font-weight:normal;font-stretch:normal;font-size:4.23333px;font-family:'Arial Rounded MT Bold';-inkscape-font-specification:'Arial Rounded MT Bold, ';text-align:center;writing-mode:lr-tb;direction:ltr;text-anchor:middle;white-space:pre;inline-size:66.045;display:inline;fill:#ffffff;stroke:none;stroke-width:0.264583;stroke-opacity:1"
       x="44.579376"
       y="53.486893"
       id="text15"
       transform="translate(-2.9117834,-9.4656971)"><tspan
         x="44.579376"
         y="53.486893"
         id="tspan12"><tspan
   style="font-family:Arial;-inkscape-font-specification:Arial"
   id="tspan11">Move all pieces to the over</tspan><tspan
   y="53.486893"
   id="tspan13"> </tspan></tspan><tspan
         x="44.579376"
         y="58.780266"
         id="tspan15"><tspan
   style="font-family:Arial;-inkscape-font-specification:Arial"
   id="tspan14">crowded hot tub location, discard</tspan><tspan
   y="58.780266"
   id="tspan16"> </tspan></tspan><tspan
         x="44.579376"
         y="64.07364"
         id="tspan18"><tspan
           style="font-family:Arial;-inkscape-font-specification:Arial"
           id="tspan17">this card and continue your go.</tspan></tspan></text></g></svg>
